<svg width="26" height="35" viewBox="0 0 26 35" fill="none" xmlns="http://www.w3.org/2000/svg">
<path d="M12.9625 0C5.84438 0 0 5.70831 0 12.6607C0 21.3696 11.6138 34.1035 12.1383 34.6158C12.5879 35.1281 13.4121 35.1281 13.8617 34.6158C14.3862 34.1035 26 21.3696 26 12.6607C26 5.70831 20.1556 0 12.9625 0ZM12.9625 19.1009C9.36599 19.1009 6.4438 16.2467 6.4438 12.7339C6.4438 9.22112 9.36599 6.36696 12.9625 6.36696C16.5591 6.36696 19.4813 9.22112 19.4813 12.7339C19.5562 16.1735 16.5591 19.1009 12.9625 19.1009Z" fill="black"/>
</svg>
