    <svg width="33" height="26" viewBox="0 0 33 26" fill="none" xmlns="http://www.w3.org/2000/svg">
<path d="M0.752501 2.61995C5.26716 6.48866 13.2216 13.1515 15.4789 15.3007C15.8014 15.6231 16.1238 15.7306 16.4463 15.7306C16.7688 15.7306 17.0913 15.6231 17.4137 15.3007C19.7786 13.1515 27.6255 6.48866 32.1401 2.61995C32.4626 2.40502 32.4626 1.97516 32.2476 1.65277C31.7102 1.00798 30.9577 0.578125 30.0978 0.578125H2.79485C1.93491 0.578125 1.18247 1.00798 0.645009 1.65277C0.430025 1.97516 0.430025 2.29755 0.752501 2.61995Z" fill="black"/>
<path d="M32.57 4.66068C32.355 4.55321 32.0326 4.55321 31.8176 4.76815C26.7655 9.06691 20.4235 14.4404 18.3811 16.2673C17.3062 17.2346 15.6938 17.2346 14.5114 16.2673C12.3616 14.3329 5.2671 8.20716 1.07492 4.76815C0.967427 4.55321 0.644951 4.55321 0.429967 4.66068C0.107492 4.76815 0 4.98309 0 5.30549V22.5006C0 24.0051 1.18241 25.2948 2.79479 25.2948H30.2052C31.7101 25.2948 33 24.1126 33 22.5006V5.30549C32.8925 4.98309 32.785 4.76815 32.57 4.66068Z" fill="black"/>
</svg>
